 <svg  version="1.0" xmlns="http://www.w3.org/2000/svg"  width="1206.000000pt" height="1206.000000pt" viewBox="0 0 1206.000000 1206.000000"  preserveAspectRatio="xMidYMid meet">  <g transform="translate(0.000000,1206.000000) scale(0.100000,-0.100000)" fill="#ff4936" stroke="none"> <path d="M1200 8235 c-156 -35 -242 -60 -287 -84 -10 -5 -51 -26 -92 -46 -41 -20 -94 -49 -118 -66 -24 -16 -46 -29 -49 -29 -10 0 -159 -133 -189 -169 -16 -19 -38 -43 -47 -53 -10 -10 -18 -22 -18 -27 0 -6 -14 -25 -30 -43 -17 -18 -30 -40 -30 -49 0 -9 -7 -22 -15 -29 -8 -7 -15 -20 -15 -30 0 -10 -7 -20 -15 -24 -8 -3 -15 -16 -15 -29 0 -14 -7 -30 -15 -37 -8 -7 -15 -20 -15 -29 0 -10 -7 -26 -15 -37 -8 -10 -15 -35 -15 -54 0 -19 -7 -53 -15 -75 -8 -22 -14 -68 -15 -102 l0 -63 300 -1 c165 -1 306 -2 313 -3 8 -1 13 17 15 49 1 28 9 64 17 82 8 17 15 40 15 51 0 10 14 46 31 78 69 130 167 229 279 280 30 13 63 29 72 34 10 6 26 10 35 10 10 0 31 7 47 15 22 12 71 15 237 15 114 0 210 -4 213 -9 4 -5 24 -12 47 -16 74 -13 199 -84 267 -153 34 -34 62 -69 62 -77 0 -7 4 -16 9 -19 10 -6 38 -65 60 -126 8 -19 17 -65 21 -102 4 -37 12 -73 18 -80 23 -28 -5 -331 -34 -373 -8 -11 -14 -27 -14 -37 0 -56 -154 -261 -226 -301 -216 -120 -251 -128 -617 -136 l-288 -6 0 -222 c0 -123 1 -227 1 -232 0 -5 109 -11 243 -15 315 -8 405 -14 444 -32 17 -8 43 -14 57 -14 15 0 34 -4 44 -9 9 -4 49 -23 87 -42 39 -18 86 -46 105 -61 19 -15 40 -28 47 -28 7 0 13 -7 13 -15 0 -8 7 -15 15 -15 8 0 15 -7 15 -15 0 -8 7 -15 15 -15 8 0 15 -7 15 -15 0 -16 12 -34 43 -63 9 -9 17 -24 17 -33 0 -9 7 -22 15 -29 8 -7 15 -24 15 -39 0 -14 7 -35 15 -45 8 -11 15 -38 15 -61 0 -22 6 -50 14 -61 21 -30 22 -297 1 -347 -8 -20 -15 -56 -15 -80 0 -27 -6 -49 -15 -57 -8 -7 -15 -19 -15 -26 0 -16 -39 -92 -51 -100 -5 -3 -9 -12 -9 -21 0 -19 -143 -161 -185 -185 -126 -69 -150 -78 -308 -113 -96 -21 -235 -19 -353 6 -96 20 -228 71 -266 103 -10 9 -23 16 -29 16 -5 0 -45 35 -87 78 -76 76 -141 182 -158 257 -4 17 -10 35 -15 40 -4 6 -9 42 -11 80 -2 49 -7 70 -15 69 -7 -1 -152 -2 -323 -2 -268 -2 -310 -4 -310 -17 0 -8 4 -15 9 -15 5 0 9 -39 10 -87 1 -58 7 -96 16 -110 8 -12 15 -36 15 -52 0 -16 7 -36 15 -45 8 -8 15 -28 15 -44 0 -16 7 -35 15 -42 8 -7 15 -20 15 -30 0 -10 7 -23 15 -30 8 -7 15 -20 15 -29 0 -9 14 -31 30 -49 17 -18 30 -39 30 -46 0 -7 20 -34 45 -60 25 -27 45 -52 45 -57 0 -5 7 -9 15 -9 8 0 15 -7 15 -15 0 -8 7 -15 15 -15 8 0 15 -7 15 -15 0 -8 7 -15 15 -15 8 0 15 -7 15 -15 0 -8 4 -15 9 -15 6 0 27 -16 48 -35 21 -19 52 -42 70 -50 18 -9 35 -20 38 -25 3 -4 40 -25 83 -45 42 -21 85 -41 94 -46 10 -5 23 -9 31 -9 7 0 29 -9 50 -20 20 -11 50 -20 65 -20 15 0 32 -4 38 -10 5 -5 32 -13 59 -16 28 -3 64 -12 80 -19 29 -12 227 -28 350 -28 116 1 344 20 357 30 7 6 36 13 65 16 28 3 60 10 70 16 10 5 35 13 56 16 20 3 37 10 37 14 0 5 18 11 40 15 22 3 40 11 40 16 0 6 7 10 15 10 19 0 209 98 213 111 2 5 8 9 14 9 36 0 234 196 303 300 62 92 115 195 115 221 0 10 4 19 10 19 5 0 12 17 15 38 4 20 13 51 21 69 8 17 14 49 14 71 0 22 7 57 16 78 13 31 15 69 12 209 -2 106 -7 177 -14 186 -6 8 -14 40 -17 72 -3 32 -10 64 -15 70 -5 7 -13 27 -17 44 -6 32 -62 153 -75 163 -3 3 -17 23 -29 45 -25 43 -205 225 -244 247 -57 32 -208 106 -236 116 -55 19 -67 122 -14 122 17 0 136 69 141 82 2 4 10 8 18 8 15 0 221 201 244 239 8 13 23 34 33 46 9 13 17 28 17 33 0 6 4 12 8 14 11 4 52 86 52 103 0 8 4 15 10 15 5 0 12 17 16 38 4 20 13 46 20 57 8 11 14 38 14 61 0 22 7 56 16 74 14 27 16 56 12 171 -3 76 -10 144 -15 151 -6 7 -13 44 -16 83 -4 38 -11 71 -17 73 -5 2 -10 17 -10 33 0 16 -9 46 -20 66 -11 21 -20 43 -20 48 0 11 -29 72 -53 110 -72 118 -111 166 -190 240 -51 47 -97 85 -103 85 -7 0 -14 6 -17 13 -7 18 -237 130 -317 155 -149 46 -173 52 -194 52 -11 0 -53 7 -91 15 -51 11 -131 14 -295 14 -196 -1 -238 -4 -330 -24z"/> <path d="M10090 8244 c-152 -34 -258 -68 -334 -107 -124 -62 -236 -133 -236 -148 0 -5 -7 -9 -16 -9 -21 0 -254 -233 -254 -254 0 -9 -4 -16 -8 -16 -9 0 -82 -96 -82 -109 0 -4 -7 -14 -15 -21 -8 -7 -15 -20 -15 -30 0 -10 -6 -20 -12 -23 -7 -3 -21 -22 -32 -43 -10 -22 -22 -46 -27 -54 -5 -8 -12 -22 -15 -30 -3 -8 -12 -27 -20 -42 -8 -14 -14 -33 -14 -41 0 -9 -8 -30 -17 -49 -9 -18 -22 -45 -30 -60 -7 -14 -13 -35 -13 -46 0 -11 -7 -33 -15 -48 -8 -16 -15 -42 -15 -59 0 -16 -7 -39 -15 -49 -8 -11 -15 -36 -15 -55 0 -20 -7 -54 -15 -76 -8 -22 -14 -65 -15 -95 0 -31 -6 -62 -12 -68 -20 -19 -23 -1228 -4 -1257 7 -11 14 -53 15 -95 1 -41 7 -81 14 -88 6 -8 13 -37 15 -65 2 -28 10 -64 18 -79 8 -15 14 -38 14 -51 0 -13 7 -32 15 -43 8 -10 15 -33 15 -50 0 -17 7 -37 15 -44 8 -7 15 -25 15 -39 0 -15 7 -36 15 -47 8 -10 15 -26 15 -35 0 -9 7 -22 15 -29 8 -7 15 -23 15 -35 0 -13 7 -25 15 -29 8 -3 15 -14 15 -25 0 -11 7 -26 15 -35 8 -8 15 -21 15 -30 0 -8 4 -17 9 -21 6 -3 20 -26 33 -51 12 -26 28 -49 35 -51 7 -3 13 -11 13 -19 0 -13 26 -48 73 -96 9 -10 17 -22 17 -28 0 -5 7 -10 15 -10 8 0 15 -7 15 -15 0 -20 115 -135 135 -135 8 0 15 -7 15 -15 0 -8 4 -15 9 -15 5 0 26 -15 46 -32 20 -18 51 -42 70 -53 18 -11 61 -37 95 -57 34 -21 72 -41 86 -44 13 -3 24 -10 24 -14 0 -5 15 -12 33 -15 17 -4 37 -11 42 -15 6 -4 26 -11 45 -15 19 -4 40 -11 46 -16 6 -5 33 -12 60 -15 27 -4 55 -11 62 -17 15 -12 215 -30 337 -30 157 0 374 18 387 31 6 6 35 12 62 12 28 0 64 7 80 15 15 8 40 15 55 15 14 0 39 7 55 15 15 8 36 15 45 15 9 0 28 6 43 14 15 8 40 17 57 21 17 4 31 11 31 16 0 5 8 9 18 9 10 0 27 7 38 15 10 8 25 15 33 15 7 0 47 20 88 45 40 25 78 45 83 45 5 0 15 6 22 12 7 7 29 24 49 38 62 43 121 92 197 164 l72 69 0 807 c0 444 -2 809 -4 811 -2 2 -318 2 -701 -1 l-696 -5 0 -225 0 -225 375 -5 c289 -4 378 -8 388 -18 10 -10 13 -110 13 -479 l0 -466 -64 -58 c-35 -33 -68 -59 -72 -59 -5 0 -30 -13 -56 -29 -46 -27 -150 -64 -258 -92 -72 -18 -209 -27 -364 -23 -118 3 -145 7 -220 33 -109 38 -199 87 -269 146 -61 52 -152 148 -152 160 0 4 -13 24 -28 44 -24 31 -59 98 -128 246 -8 17 -17 45 -20 63 -4 18 -11 35 -15 38 -5 3 -9 17 -9 32 0 15 -6 38 -13 52 -8 15 -17 55 -20 89 -4 35 -11 69 -16 75 -5 6 -11 52 -13 102 -3 49 -10 100 -17 111 -15 29 -16 1024 0 1040 5 5 12 52 15 104 3 52 12 111 20 132 8 20 14 57 14 81 0 25 5 46 11 48 6 2 14 27 17 56 2 29 8 52 13 52 4 0 11 16 15 37 4 20 13 48 20 62 8 14 14 31 14 36 0 14 62 137 78 153 6 7 12 19 12 27 0 7 3 15 8 17 4 2 21 23 37 48 39 57 138 157 195 195 25 16 47 32 50 35 3 3 23 13 45 23 22 10 53 25 68 33 16 8 43 14 60 14 18 0 45 7 61 15 21 11 63 15 167 15 76 0 140 -4 143 -9 3 -5 33 -12 66 -16 33 -4 63 -11 66 -16 3 -5 14 -9 25 -9 10 0 36 -9 56 -20 21 -11 43 -20 50 -20 7 0 13 -4 13 -10 0 -5 6 -10 13 -10 12 0 26 -9 74 -50 7 -5 14 -10 17 -10 7 0 106 -100 106 -107 0 -3 14 -22 30 -43 17 -21 30 -45 30 -53 0 -8 7 -20 15 -27 8 -7 15 -20 15 -30 0 -10 7 -23 15 -30 8 -7 15 -24 15 -39 0 -14 7 -35 15 -45 8 -11 15 -31 15 -46 0 -14 6 -34 13 -45 7 -11 14 -45 16 -75 2 -30 4 -56 5 -57 1 -1 141 -3 312 -3 l309 -1 -2 61 c-1 34 -6 67 -11 73 -5 7 -12 39 -15 71 -3 33 -10 62 -15 65 -5 3 -12 26 -15 50 -3 24 -10 47 -15 50 -5 3 -13 22 -17 41 -4 19 -11 41 -16 50 -4 8 -24 49 -44 91 -19 42 -42 82 -50 89 -8 7 -15 17 -15 22 0 6 -13 27 -30 48 -16 21 -30 41 -30 44 0 19 -208 226 -227 226 -7 0 -16 6 -20 14 -4 7 -24 22 -43 33 -19 10 -53 30 -75 44 -98 63 -311 138 -480 169 -107 20 -533 23 -615 4z"/> <path d="M4918 8202 l-318 -2 0 -2145 0 -2145 318 0 317 0 0 1488 c0 818 3 1494 7 1503 15 34 108 -2 108 -41 0 -10 7 -23 15 -30 8 -7 15 -20 15 -30 0 -10 7 -23 15 -30 8 -7 15 -23 15 -37 0 -13 7 -26 15 -29 8 -4 15 -17 15 -30 0 -14 7 -27 15 -30 8 -4 15 -17 15 -30 0 -14 7 -27 15 -30 8 -4 15 -18 15 -34 0 -15 7 -33 15 -40 8 -7 15 -23 15 -35 0 -12 7 -28 15 -35 8 -7 15 -20 15 -30 0 -10 7 -23 15 -30 8 -7 15 -20 15 -30 0 -10 7 -23 15 -30 8 -7 15 -20 15 -30 0 -10 7 -23 15 -30 8 -7 15 -20 15 -30 0 -10 7 -23 15 -30 8 -7 15 -23 15 -37 0 -13 7 -26 15 -29 8 -4 15 -17 15 -30 0 -14 7 -27 15 -30 8 -4 15 -18 15 -34 0 -15 7 -33 15 -40 8 -7 15 -20 15 -29 0 -9 7 -25 15 -35 8 -11 15 -27 15 -37 0 -9 7 -22 15 -29 8 -7 15 -20 15 -30 0 -10 7 -23 15 -30 8 -7 15 -20 15 -30 0 -10 7 -23 15 -30 8 -7 15 -23 15 -35 0 -13 7 -25 15 -29 8 -3 15 -16 15 -30 0 -13 7 -26 15 -30 8 -3 15 -17 15 -31 0 -14 7 -28 15 -31 8 -4 15 -18 15 -34 0 -15 7 -33 15 -40 8 -7 15 -20 15 -29 0 -9 7 -25 15 -35 8 -11 15 -27 15 -37 0 -9 7 -22 15 -29 8 -7 15 -20 15 -30 0 -10 7 -23 15 -30 8 -7 15 -20 15 -30 0 -10 7 -23 15 -30 8 -7 15 -23 15 -35 0 -13 7 -25 15 -29 8 -3 15 -16 15 -30 0 -13 7 -26 15 -30 8 -3 15 -17 15 -31 0 -14 7 -28 15 -31 9 -4 15 -19 15 -35 0 -19 5 -29 15 -29 9 0 15 -9 15 -24 0 -13 14 -48 30 -79 17 -31 30 -63 30 -71 0 -7 7 -19 15 -26 8 -7 15 -20 15 -30 0 -10 7 -23 15 -30 8 -7 15 -20 15 -30 0 -10 7 -23 15 -30 8 -7 15 -23 15 -37 0 -13 7 -26 15 -29 8 -4 15 -17 15 -30 0 -14 7 -27 15 -30 8 -4 15 -17 15 -30 0 -14 7 -27 15 -30 8 -4 15 -18 15 -34 0 -15 7 -33 15 -40 8 -7 15 -20 15 -29 0 -9 7 -25 15 -35 8 -11 15 -27 15 -37 0 -9 7 -22 15 -29 8 -7 15 -20 15 -30 0 -10 7 -23 15 -30 8 -7 15 -20 15 -30 0 -10 7 -23 15 -30 8 -7 15 -23 15 -37 0 -13 7 -26 15 -29 8 -4 15 -17 15 -30 0 -14 7 -27 15 -30 8 -4 15 -17 15 -30 0 -14 7 -27 15 -30 9 -4 15 -19 15 -35 l0 -28 326 -3 c179 -2 328 -1 330 1 7 8 4 4290 -3 4293 -5 2 -147 1 -318 -2 l-309 -5 -4 -575 c-10 -1658 -18 -2357 -26 -2373 -18 -36 -86 -29 -86 9 0 13 -10 36 -71 157 -16 31 -29 64 -29 72 0 8 -4 15 -10 15 -5 0 -10 7 -10 15 0 8 -9 32 -20 52 -11 21 -20 43 -20 50 0 7 -4 13 -10 13 -5 0 -10 5 -10 11 0 7 -16 45 -35 85 -19 40 -35 77 -35 83 0 6 -4 11 -10 11 -5 0 -10 6 -10 13 0 6 -16 43 -35 80 -19 38 -35 75 -35 83 0 8 -4 14 -10 14 -5 0 -10 7 -10 15 0 8 -9 32 -20 52 -11 21 -20 43 -20 50 0 7 -4 13 -10 13 -5 0 -10 5 -10 11 0 7 -16 45 -35 85 -19 40 -35 77 -35 83 0 6 -4 11 -10 11 -5 0 -10 6 -10 13 0 6 -16 43 -35 80 -19 38 -35 75 -35 83 0 8 -4 14 -10 14 -5 0 -10 7 -10 15 0 8 -9 32 -20 52 -11 21 -20 43 -20 50 0 7 -4 13 -10 13 -5 0 -10 5 -10 11 0 7 -16 45 -35 85 -19 40 -35 77 -35 83 0 6 -4 11 -10 11 -5 0 -10 6 -10 13 0 6 -16 43 -35 80 -19 38 -35 75 -35 83 0 8 -4 14 -10 14 -5 0 -10 7 -10 15 0 8 -9 32 -20 52 -11 21 -20 43 -20 50 0 7 -4 13 -10 13 -5 0 -10 5 -10 11 0 7 -16 45 -35 85 -19 40 -35 77 -35 83 0 6 -4 11 -10 11 -5 0 -10 6 -10 13 0 6 -16 43 -35 80 -19 38 -35 75 -35 83 0 8 -4 14 -10 14 -5 0 -10 7 -10 15 0 8 -9 32 -20 52 -11 21 -20 43 -20 50 0 7 -4 13 -10 13 -5 0 -10 5 -10 11 0 7 -16 45 -35 85 -19 40 -35 77 -35 83 0 6 -4 11 -10 11 -5 0 -10 6 -10 13 0 6 -16 43 -35 80 -19 38 -35 75 -35 83 0 8 -4 14 -10 14 -5 0 -10 8 -11 18 0 23 -62 136 -74 136 -5 1 -153 0 -327 -2z"/> </g> </svg> 